<?xml version="1.0" encoding="utf-8"?>
<!-- Generator: Adobe Illustrator 26.5.0, SVG Export Plug-In . SVG Version: 6.00 Build 0)  -->
<svg version="1.1" id="Layer_1" xmlns="http://www.w3.org/2000/svg" xmlns:xlink="http://www.w3.org/1999/xlink" x="0px" y="0px"
	 viewBox="0 0 512 512" style="enable-background:new 0 0 512 512;" xml:space="preserve">
<style type="text/css">
	.st0{fill:#8E97E9;}
</style>
<path class="st0" d="M0,170.7v-21.3C0,90.5,47.9,42.7,106.7,42.7H128V21.3C128,9.6,137.5,0,149.3,0s21.3,9.6,21.3,21.3v21.3h170.7
	V21.3c0-11.8,9.5-21.3,21.3-21.3C374.5,0,384,9.6,384,21.3v21.3h21.3c58.8,0,106.7,47.9,106.7,106.7v21.3H0z M512,213.3v192
	c0,58.8-47.9,106.7-106.7,106.7H106.7C47.9,512,0,464.1,0,405.3v-192H512z M256,405.3c0-11.8-9.5-21.3-21.3-21.3H128
	c-11.8,0-21.3,9.6-21.3,21.3s9.5,21.3,21.3,21.3h106.7C246.5,426.7,256,417.1,256,405.3z M405.3,320c0-11.8-9.5-21.3-21.3-21.3H128
	c-11.8,0-21.3,9.6-21.3,21.3s9.5,21.3,21.3,21.3h256C395.8,341.3,405.3,331.8,405.3,320z"/>
</svg>
