<?xml version="1.0" encoding="utf-8"?>
<!-- Generator: Adobe Illustrator 26.5.0, SVG Export Plug-In . SVG Version: 6.00 Build 0)  -->
<svg version="1.1" id="Layer_1" xmlns="http://www.w3.org/2000/svg" xmlns:xlink="http://www.w3.org/1999/xlink" x="0px" y="0px"
	 viewBox="0 0 384.2 512" style="enable-background:new 0 0 384.2 512;" xml:space="preserve">
<style type="text/css">
	.st0{fill:#8E97E9;}
</style>
<path class="st0" d="M277.4,192v-42.7H106.8V192C47.9,192.1,0.2,239.8,0.1,298.7v106.7C0.2,464.3,47.9,512,106.8,512.1h170.7
	c58.9-0.1,106.6-47.8,106.7-106.7V298.7C384,239.8,336.3,192.1,277.4,192z M256.1,362.7h-42.7v42.7c0,11.8-9.6,21.3-21.3,21.3
	c-11.8,0-21.3-9.6-21.3-21.3v-42.7h-42.7c-11.8,0-21.3-9.6-21.3-21.3s9.5-21.4,21.3-21.4h42.7v-42.7c0-11.8,9.6-21.3,21.3-21.3
	c11.8,0,21.3,9.6,21.3,21.3V320h42.7c11.8,0,21.3,9.6,21.3,21.3S267.9,362.7,256.1,362.7z M266.8,106.7H117.4
	c-29.5,0-53.3-23.9-53.3-53.3S88,0,117.4,0h149.3c29.5,0,53.4,23.9,53.4,53.3S296.2,106.7,266.8,106.7z"/>
</svg>
