<?xml version="1.0" encoding="utf-8"?>
<!-- Generator: Adobe Illustrator 26.5.0, SVG Export Plug-In . SVG Version: 6.00 Build 0)  -->
<svg version="1.1" id="Layer_1" xmlns="http://www.w3.org/2000/svg" xmlns:xlink="http://www.w3.org/1999/xlink" x="0px" y="0px"
	 viewBox="0 0 512 512" style="enable-background:new 0 0 512 512;" xml:space="preserve">
<style type="text/css">
	.st0{fill:#8F97E9;}
</style>
<path class="st0" d="M509.9,244C491.7,103.8,363.2,4.9,223,23.1C95.3,39.7-0.2,148.6,0,277.3C-0.2,347.7,28.8,415,80.2,463.2
	c19.4,18,45.1,27.8,71.6,27.5h208.4c28,0.1,54.9-10.9,74.9-30.5C492.7,404,520.5,323.8,509.9,244L509.9,244z M159.4,419.4
	c-7.8,8.8-21.3,9.7-30.1,1.9l0,0c-79.6-69.9-87.5-191.1-17.6-270.7c36.5-41.5,89.1-65.3,144.3-65.3c16.2,0,32.3,2,48,6
	c11.4,2.9,18.3,14.6,15.3,26c-2.9,11.4-14.6,18.3-26,15.3c-79.8-20.7-161.2,27.2-181.9,107c-14.1,54.6,3.7,112.4,46,149.6
	C166.3,397.1,167.2,410.6,159.4,419.4L159.4,419.4L159.4,419.4z M256,320c-23.6,0.3-42.9-18.5-43.2-42.1s18.5-42.9,42.1-43.2
	c4.1-0.1,8.1,0.5,12,1.6l80.7-80.7c8.2-8.5,21.7-8.7,30.2-0.5s8.7,21.7,0.5,30.2c-0.2,0.2-0.3,0.4-0.5,0.5l-80.7,80.7
	c6.3,22.4-6.7,45.7-29.1,52C264.1,319.5,260,320,256,320L256,320z M382.7,421.4c-9,7.6-22.5,6.4-30.1-2.6
	c-7.3-8.7-6.5-21.6,1.9-29.4c42.3-37.1,60.1-94.8,46.1-149.3c-2.9-11.4,3.9-23.1,15.3-26s23.1,3.9,26,15.3c4,15.7,6,31.8,6,48
	C447.9,332.5,424.2,385,382.7,421.4z"/>
</svg>
