<?xml version="1.0" encoding="utf-8"?>
<!-- Generator: Adobe Illustrator 26.5.0, SVG Export Plug-In . SVG Version: 6.00 Build 0)  -->
<svg version="1.1" id="Filled" xmlns="http://www.w3.org/2000/svg" xmlns:xlink="http://www.w3.org/1999/xlink" x="0px" y="0px"
	 viewBox="0 0 512 512" style="enable-background:new 0 0 512 512;" xml:space="preserve">
<style type="text/css">
	.st0{fill:#8E97E9;}
</style>
<path class="st0" d="M256,0C114.6,0,0,114.6,0,256s114.6,256,256,256s256-114.6,256-256C511.8,114.7,397.3,0.2,256,0z M256,426.7
	c-11.8,0-21.3-9.6-21.3-21.3S244.2,384,256,384c11.8,0,21.3,9.6,21.3,21.3S267.8,426.7,256,426.7z M297.2,266.8
	c-12.8,8-20.4,22.3-19.8,37.4V320c0,11.8-9.6,21.3-21.3,21.3c-11.8,0-21.3-9.6-21.3-21.3v-15.9c-0.6-30.7,15.4-59.2,41.9-74.7
	c16.2-8.9,24.8-27.2,21.3-45.3c-3.4-17.2-16.9-30.7-34.1-34c-23.2-4.3-45.4,11-49.7,34.2c-0.5,2.5-0.7,5.1-0.7,7.7
	c0,11.8-9.6,21.3-21.3,21.3c-11.8,0-21.3-9.6-21.3-21.3c0-47.1,38.2-85.3,85.4-85.3c47.1,0,85.3,38.2,85.3,85.4
	C341.3,223.1,324.4,251.8,297.2,266.8L297.2,266.8z"/>
</svg>
