<?xml version="1.0" encoding="utf-8"?>
<!-- Generator: Adobe Illustrator 26.5.0, SVG Export Plug-In . SVG Version: 6.00 Build 0)  -->
<svg version="1.1" id="Layer_1" xmlns="http://www.w3.org/2000/svg" xmlns:xlink="http://www.w3.org/1999/xlink" x="0px" y="0px"
	 viewBox="0 0 512 512" style="enable-background:new 0 0 512 512;" xml:space="preserve">
<style type="text/css">
	.st0{fill:#8E97E9;}
</style>
<path class="st0" d="M341.3,192v-42.7H170.7V192C111.8,192.1,64.1,239.8,64,298.7v106.7c0.1,58.9,47.8,106.6,106.7,106.7h170.7
	c58.9-0.1,106.6-47.8,106.7-106.7V298.7C447.9,239.8,400.2,192.1,341.3,192z M320,362.7h-42.7v42.7c0,11.8-9.6,21.3-21.3,21.3
	c-11.8,0-21.3-9.6-21.3-21.3v-42.7H192c-11.8,0-21.3-9.6-21.3-21.3S180.2,320,192,320h42.7v-42.7c0-11.8,9.6-21.3,21.3-21.3
	c11.8,0,21.3,9.6,21.3,21.3V320H320c11.8,0,21.3,9.6,21.3,21.3S331.8,362.7,320,362.7z M330.7,106.7H181.3
	c-29.5,0-53.3-23.9-53.3-53.3S151.9,0,181.3,0h149.3C360.1,0,384,23.9,384,53.3S360.1,106.7,330.7,106.7z"/>
</svg>
