<?xml version="1.0" encoding="utf-8"?>
<!-- Generator: Adobe Illustrator 26.5.0, SVG Export Plug-In . SVG Version: 6.00 Build 0)  -->
<svg version="1.1" id="Layer_1" xmlns="http://www.w3.org/2000/svg" xmlns:xlink="http://www.w3.org/1999/xlink" x="0px" y="0px"
	 viewBox="0 0 512 512" style="enable-background:new 0 0 512 512;" xml:space="preserve">
<style type="text/css">
	.st0{fill:#8E97E9;}
</style>
<path class="st0" d="M493.2,210.8L387.6,105.2l-45.2,45.2L416,224H141.2v64H416l-73.6,73.6l45.2,45.2l105.6-105.6
	C518.2,276.2,518.2,235.7,493.2,210.8z"/>
<path class="st0" d="M213.2,437.3c0,5.9-4.8,10.7-10.7,10.7H74.8c-5.9,0-10.7-4.8-10.7-10.7v-362c0-5.9,4.8-10.7,10.7-10.7h127.7
	c5.9,0,10.7,4.8,10.7,10.7V178h64V75.3c-0.1-41.2-33.5-74.6-74.7-74.7H74.8C33.6,0.7,0.2,34.1,0.1,75.3v362
	c0,41.2,33.4,74.7,74.7,74.7h127.7c41.2,0,74.7-33.4,74.7-74.7V334.6h-64V437.3z"/>
</svg>
