<?xml version="1.0" encoding="utf-8"?>
<!-- Generator: Adobe Illustrator 26.5.0, SVG Export Plug-In . SVG Version: 6.00 Build 0)  -->
<svg version="1.1" id="Layer_1" xmlns="http://www.w3.org/2000/svg" xmlns:xlink="http://www.w3.org/1999/xlink" x="0px" y="0px"
	 viewBox="0 0 512 512" style="enable-background:new 0 0 512 512;" xml:space="preserve">
<style type="text/css">
	.st0{fill:#545FDC;}
</style>
<path class="st0" d="M512,192c0.1-35.3-28.4-64.1-63.7-64.3c-35.3-0.1-64.1,28.4-64.3,63.7c-0.1,27.2,17,51.5,42.7,60.6v89.3
	c0,70.7-57.3,128-128,128s-128-57.3-128-128v-1.7C244,329,298.5,266.1,298.7,192v-85.3C298.6,47.8,250.9,0.1,192,0
	c-11.8,0-21.3,9.6-21.3,21.3s9.6,21.3,21.3,21.3c35.3,0,64,28.7,64,64V192c0,58.9-47.8,106.7-106.7,106.7S42.7,250.9,42.7,192v-85.3
	c0-35.3,28.7-64,64-64c11.8,0,21.3-9.6,21.3-21.3S118.4,0,106.7,0C47.8,0.1,0.1,47.8,0,106.7V192c0.1,74.1,54.6,137,128,147.6v1.7
	c0,94.3,76.4,170.7,170.7,170.7s170.7-76.4,170.7-170.7v-89.3C494.8,243.1,511.9,219,512,192z"/>
</svg>
